<svg xmlns="http://www.w3.org/2000/svg" xmlns:xlink="http://www.w3.org/1999/xlink" version="1.1" x="0px" y="0px" viewBox="0 0 100 125" enable-background="new 0 0 100 100" xml:space="preserve"><path d="M83.966,30.982c-3.658-1.819-8.646-1.222-13.156,0.679c0.313-7.067,0.098-11.795,0.092-11.903l-0.023-0.475l-60.104,0.003  l-0.024,0.475c-0.012,0.248-1.151,25.024,5.686,46.48c4.542,14.256,12.415,20.401,12.748,20.656L29.317,87h0.169h22.677h0.17  l0.135-0.103c0.332-0.255,8.205-6.4,12.748-20.656c0.074-0.232,0.143-0.468,0.215-0.701c9.367-4.431,21.713-10.541,23.34-22.8  C89.785,35.093,86.195,32.091,83.966,30.982z M83.814,42.083c-1.089,8.215-8.927,13.203-16.64,17.06  c1.812-7.604,2.78-15.237,3.284-21.737c3.967-2.253,8.726-3.216,11.28-1.947C83.578,36.373,84.276,38.602,83.814,42.083z"/><text x="0" y="115" fill="#000000" font-size="5px" font-weight="bold" font-family="'Helvetica Neue', Helvetica, Arial-Unicode, Arial, Sans-serif">Created by Bahi</text><text x="0" y="120" fill="#000000" font-size="5px" font-weight="bold" font-family="'Helvetica Neue', Helvetica, Arial-Unicode, Arial, Sans-serif">from the Noun Project</text></svg>